<svg
    viewBox="0 0 462 540"
    xmlns="http://www.w3.org/2000/svg"
    xmlSpace="preserve"
    style='
      fillRule: "evenodd";
      clipRule: "evenodd";
      strokeLinejoin: "round";
      strokeMiterlimit: 2;
      fill: #121212;
    '
>
  <path d="M180.904 334.492C200.901 362.059 233.372 380 270 380c30.355 0 57.855-12.322 77.766-32.234 0 0 126.076 81.076 113.115 113.115C447.92 492.92 344.509 540 270 540 120.983 540 0 419.017 0 270S120.983 0 270 0c74.509 0 177.92 47.08 190.881 79.119 12.961 32.039-113.115 113.115-113.115 113.115C327.855 172.322 300.355 160 270 160c-54.712 0-100.149 40.031-108.594 92.385-25.407 10.445-43.058 21.784-48.964 32.198-.209.65-.288 1.353 0 2.073 2.18 12.416 25.281 19.848 60.066 21.558 29.181 1.435 66.584-1.157 106.757-8.212 88.062-15.465 156.303-46.556 152.293-69.387-1.047-5.966-6.924-10.78-16.605-14.363 0 0 26.835 5.326 29.498 20.487 4.646 26.455-68.902 61.511-164.138 78.235-37.514 6.588-72.834 9.356-102.151 8.673-45.108-1.05-76.006-10.268-78.821-26.302-6.12 29.995 36.657 32.686 81.563 37.147Z" />
</svg>